Coordinates
version=1
nRows=14
nColumns=46
inDegrees=yes

Units are S.I. units (second, meters, Newtons, ...)
Angles are in degrees.

endheader
time	pelvis_tilt	pelvis_list	pelvis_rotation	pelvis_tx	pelvis_ty	pelvis_tz	bb_angle	bb_tx	bb_ty	bb_tz	hip_flexion_r	hip_adduction_r	hip_rotation_r	knee_angle_r	knee_angle_r_beta	ankle_angle_r	subtalar_angle_r	mtp_angle_r	crank_angle_r	hip_flexion_l	hip_adduction_l	hip_rotation_l	knee_angle_l	knee_angle_l_beta	ankle_angle_l	subtalar_angle_l	mtp_angle_l	crank_angle_l	lumbar_extension	lumbar_bending	lumbar_rotation	arm_flex_r	arm_add_r	arm_rot_r	elbow_flex_r	pro_sup_r	wrist_flex_r	wrist_dev_r	arm_flex_l	arm_add_l	arm_rot_l	elbow_flex_l	pro_sup_l	wrist_flex_l	wrist_dev_l
      5.00500000	    -12.52373326	      1.06534198	      0.54941916	      0.12424579	      1.15698111	     -0.22284162	      0.00000000	      0.50000000	      0.00000000	      0.25000000	     44.31027690	     -9.02438409	    -11.33308576	     37.78307644	      0.65943909	     -3.13680928	      9.28056921	      0.00000000	      0.00000000	     86.29820041	    -13.77120272	      1.18408994	    113.70797442	      1.98457854	      4.00747123	      2.16378092	      0.00000000	      0.00000000	    -58.72618178	     -4.00580365	     -0.72738097	     89.49119464	    -26.03342777	     49.66791887	     52.78966313	     26.05411180	      0.00000000	      0.00000000	     89.76397615	    -21.27815583	     47.52227159	     54.96666088	     24.32932691	      0.00000000	      0.00000000
      5.01000000	    -12.44466560	      1.07228235	      0.70376250	      0.12455100	      1.15738331	     -0.22123047	      0.00000000	      0.50000000	      0.00000000	      0.25000000	     43.54121464	     -9.12732677	    -11.77698277	     37.63114812	      0.65678744	     -3.74200243	      9.45800363	      0.00000000	      0.00000000	     87.01716271	    -13.45567839	      1.40678166	    113.93598513	      1.98855808	      5.17039402	      1.83496697	      0.00000000	      0.00000000	    -58.81150518	     -4.42718724	     -0.95144663	     89.45555009	    -25.95908293	     49.70322371	     52.62665561	     26.05497373	      0.00000000	      0.00000000	     89.76686252	    -21.12831212	     47.41497413	     55.08972076	     24.33915462	      0.00000000	      0.00000000
      5.01500000	    -12.05454149	      0.95071056	      1.09345824	      0.12484759	      1.15853238	     -0.22026644	      0.00000000	      0.50000000	      0.00000000	      0.25000000	     42.38836833	     -9.37520706	    -12.65367028	     37.53103102	      0.65504006	     -4.41165719	      9.79863448	      0.00000000	      0.00000000	     87.38131992	    -12.88839154	      1.76930250	    114.06204647	      1.99075826	      6.38057311	      2.05636540	      0.00000000	      0.00000000	    -59.24860807	     -4.49830600	     -1.16122130	     89.49392630	    -25.75950670	     49.84789134	     51.91287918	     26.05580494	      0.00000000	      0.00000000	     89.76916600	    -20.89047006	     46.86150319	     55.34418224	     24.32021199	      0.00000000	      0.00000000
      5.02000000	    -11.90247784	      0.88850173	      1.26052247	      0.12497604	      1.15931434	     -0.21904238	      0.00000000	      0.50000000	      0.00000000	      0.25000000	     41.66641598	     -9.48057605	    -13.12306850	     37.65426456	      0.65719089	     -4.95832375	      9.93189380	      0.00000000	      0.00000000	     87.91047819	    -12.55547203	      1.97449036	    114.09486762	      1.99133110	      7.57380048	      1.99393708	      0.00000000	      0.00000000	    -59.45588322	     -4.79580977	     -1.30693912	     89.49911593	    -25.60813244	     49.80371532	     51.46237689	     26.09869650	      0.00000000	      0.00000000	     89.77040578	    -20.65056114	     46.45637521	     55.52389909	     24.28461670	      0.00000000	      0.00000000
      5.02500000	    -11.84659041	      0.82693734	      1.40571221	      0.12496386	      1.15995703	     -0.21766195	      0.00000000	      0.50000000	      0.00000000	      0.25000000	     41.17452360	     -9.54133261	    -13.38594483	     38.01303468	      0.66345261	     -5.36320223	      9.90705600	      0.00000000	      0.00000000	     88.49414203	    -12.26710798	      2.11685281	    113.99895768	      1.98965716	      8.62413263	      1.69565303	      0.00000000	      0.00000000	    -59.54419566	     -5.10320642	     -1.42145639	     89.49142892	    -25.59403838	     49.77039808	     51.35806892	     26.10608635	      0.00000000	      0.00000000	     89.77627364	    -20.49984784	     46.34188182	     55.64897253	     24.28897505	      0.00000000	      0.00000000
      5.03000000	    -11.80465694	      0.75920269	      1.63447915	      0.12476767	      1.16079403	     -0.21653005	      0.00000000	      0.50000000	      0.00000000	      0.25000000	     40.76692803	     -9.67168935	    -13.77252490	     38.49516061	      0.67186730	     -5.75027956	      9.74046721	      0.00000000	      0.00000000	     89.01087572	    -11.86742501	      2.23414335	    113.74260666	      1.98518299	      9.61108783	      1.74777073	      0.00000000	      0.00000000	    -59.72682307	     -5.34651359	     -1.51518594	     89.49474783	    -25.64564764	     49.72824286	     51.17900463	     26.10455411	      0.00000000	      0.00000000	     89.78016051	    -20.25624152	     46.11830202	     55.86373610	     24.29946916	      0.00000000	      0.00000000
      5.03500000	    -11.77833932	      0.66039984	      1.73998188	      0.12445411	      1.16150130	     -0.21562758	      0.00000000	      0.50000000	      0.00000000	      0.25000000	     40.51215656	     -9.71109173	    -13.91995799	     39.17847821	      0.68379344	     -6.00373231	      9.58818136	      0.00000000	      0.00000000	     89.48880591	    -11.53812307	      2.40840353	    113.40021257	      1.97920708	     10.58281838	      1.77794171	      0.00000000	      0.00000000	    -59.82800183	     -5.57822736	     -1.54205549	     89.51273380	    -25.65967789	     49.67397203	     51.05077441	     26.10563504	      0.00000000	      0.00000000	     89.78230752	    -20.04028689	     45.87592907	     56.02818975	     24.30037544	      0.00000000	      0.00000000
      5.04000000	    -11.81528230	      0.54574198	      1.89233516	      0.12396836	      1.16222033	     -0.21460361	      0.00000000	      0.50000000	      0.00000000	      0.25000000	     40.43225234	     -9.74173884	    -14.01066013	     40.03969731	      0.69882455	     -6.17096483	      9.25740617	      0.00000000	      0.00000000	     89.92340878	    -11.21960252	      2.51730738	    112.85130650	      1.96962686	     11.56154820	      1.68931455	      0.00000000	      0.00000000	    -59.91106290	     -5.81939821	     -1.52585157	     89.52101483	    -25.76338608	     49.58091722	     50.90410562	     26.10146676	      0.00000000	      0.00000000	     89.78477917	    -19.77146924	     45.56807456	     56.24718627	     24.30519848	      0.00000000	      0.00000000
      5.04500000	    -11.90410841	      0.44165072	      2.07708157	      0.12332889	      1.16289883	     -0.21361127	      0.00000000	      0.50000000	      0.00000000	      0.25000000	     40.51370745	     -9.75923316	    -13.94232281	     41.06124383	      0.71665390	     -6.29670734	      8.75495711	      0.00000000	      0.00000000	     90.30955185	    -10.87058083	      2.59371644	    112.15073667	      1.95739961	     12.40901543	      1.64861529	      0.00000000	      0.00000000	    -59.97302460	     -6.03270041	     -1.52699859	     89.53246274	    -25.90944113	     49.46804054	     50.77378378	     26.09709113	      0.00000000	      0.00000000	     89.79037790	    -19.42911151	     45.24919264	     56.48933733	     24.31218940	      0.00000000	      0.00000000
      5.05000000	    -12.23292306	      0.46681920	      2.12565283	      0.12256041	      1.16320489	     -0.21248944	      0.00000000	      0.50000000	      0.00000000	      0.25000000	     41.06143056	     -9.79950715	    -13.56132261	     42.32533868	      0.73871652	     -6.41641304	      8.03815595	      0.00000000	      0.00000000	     90.77468916	    -10.64740618	      2.50376709	    111.27979935	      1.94219889	     13.19567837	      1.74015717	      0.00000000	      0.00000000	    -59.85147419	     -6.60376671	     -1.25498573	     89.52835782	    -26.91339842	     49.16851549	     51.02558307	     26.52727192	      0.00000000	      0.00000000	     89.78732207	    -17.78353248	     43.73336972	     56.14924693	     23.81342994	      0.00000000	      0.00000000
      5.05500000	    -12.42157735	      0.37462675	      2.30041183	      0.12169642	      1.16368789	     -0.21164873	      0.00000000	      0.50000000	      0.00000000	      0.25000000	     41.51606583	     -9.83410292	    -13.37176446	     43.72460947	      0.76313840	     -6.51733973	      7.25437736	      0.00000000	      0.00000000	     91.03671438	    -10.35926341	      2.48853373	    110.27914870	      1.92473424	     14.00148056	      1.83297130	      0.00000000	      0.00000000	    -59.79991808	     -6.79399550	     -1.24182915	     89.54139428	    -27.11478488	     49.04347019	     50.95711966	     26.53949217	      0.00000000	      0.00000000	     89.79264840	    -17.54197408	     43.63101457	     56.42623874	     23.82821153	      0.00000000	      0.00000000
      5.06000000	    -12.64162258	      0.30792144	      2.41629601	      0.12075939	      1.16406963	     -0.21084871	      0.00000000	      0.50000000	      0.00000000	      0.25000000	     42.15455454	     -9.86026483	    -13.08058124	     45.30597415	      0.79073842	     -6.68415816	      6.39423675	      0.00000000	      0.00000000	     91.18664752	    -10.12323097	      2.45496167	    109.14598686	      1.90495684	     14.79821313	      2.10149868	      0.00000000	      0.00000000	    -59.71485920	     -7.01562409	     -1.20031132	     89.54815422	    -27.33918664	     48.88318001	     50.91674667	     26.54868048	      0.00000000	      0.00000000	     89.79548630	    -17.25524688	     43.45567510	     56.68560167	     23.83878639	      0.00000000	      0.00000000
      5.06500000	    -13.15729791	      0.36923066	      2.40206858	      0.11967408	      1.16405728	     -0.20973245	      0.00000000	      0.50000000	      0.00000000	      0.25000000	     43.26617619	     -9.82922261	    -12.39543274	     46.97143507	      0.81980620	     -6.99864202	      5.17615478	      0.00000000	      0.00000000	     91.45255140	    -10.05382666	      2.25210414	    107.79954822	      1.88145705	     15.58739203	      2.60106557	      0.00000000	      0.00000000	    -59.40807700	     -7.50881384	     -1.17539721	     89.54704193	    -27.77873085	     48.62490419	     51.01893109	     26.61863987	      0.00000000	      0.00000000	     89.79625455	    -16.70882233	     42.98708863	     56.96513004	     23.78758315	      0.00000000	      0.00000000
      5.07000000	    -13.43406267	      0.29073622	      2.49762075	      0.11872431	      1.16425102	     -0.20889735	      0.00000000	      0.50000000	      0.00000000	      0.25000000	     44.14758461	     -9.80113748	    -11.99242648	     48.76896326	      0.85117898	     -7.17359452	      4.09940794	      0.00000000	      0.00000000	     91.38297346	     -9.93476222	      2.16542705	    106.36132792	      1.85635537	     16.40115820	      3.05032048	      0.00000000	      0.00000000	    -59.27465379	     -7.73951110	     -1.07299160	     89.55252388	    -28.18499078	     48.44615244	     51.07592680	     26.67535546	      0.00000000	      0.00000000	     89.79800092	    -16.23275494	     42.66252125	     57.11684387	     23.72759292	      0.00000000	      0.00000000
